<?xml version="1.0" encoding="utf-8"?>
<!-- Generator: Adobe Illustrator 19.0.0, SVG Export Plug-In . SVG Version: 6.00 Build 0)  -->
<svg version="1.1" id="layer" xmlns="http://www.w3.org/2000/svg" xmlns:xlink="http://www.w3.org/1999/xlink" x="0px" y="0px"
	 viewBox="-153 -46 652 652" style="enable-background:new -153 -46 652 652;" xml:space="preserve">
<path d="M-112.1,288.4h-14.2c0.8,6.2,2.5,12.2,4.9,17.9c3.5,8.4,8.6,15.9,15.1,22.3c6.5,6.4,14,11.5,22.3,15.1
	c8.7,3.7,17.9,5.5,27.4,5.5H165v-14.1H-56.7C-84.5,335.2-107.6,314.9-112.1,288.4"/>
<path d="M-56.7,222.7H165v-14.1H-56.7c-9.5,0-18.7,1.9-27.4,5.5c-8.4,3.5-15.9,8.6-22.3,15.1c-6.4,6.4-11.5,14-15.1,22.3
	c-2.5,5.9-4.2,12.1-5,18.4h14.2C-107.9,243.2-84.6,222.7-56.7,222.7"/>
<path d="M403.9,335.1H183.4v14.1h220.5c9.5,0,18.7-1.9,27.4-5.5c8.4-3.5,15.9-8.6,22.3-15.1c6.4-6.4,11.5-14,15.1-22.3
	c2.4-5.8,4.1-11.8,4.9-17.9h-14.2C454.9,314.9,431.8,335.1,403.9,335.1"/>
<path d="M459.4,270h14.2c-0.8-6.3-2.5-12.5-5-18.4c-3.5-8.4-8.6-15.9-15.1-22.3c-6.5-6.5-14-11.5-22.3-15.1
	c-8.7-3.7-17.9-5.5-27.4-5.5H183.4v14.1h220.5C431.9,222.7,455.1,243.2,459.4,270"/>
<path d="M-32.4,261.4l2.3-3.4h-29.4l-0.7,1.1c-0.2,0.2-14,21.1-19.8,30.3c-3.2,5.1-6.5,12.1-4.1,16.7c0.9,1.8,3,3.9,8.1,3.9
	c54.1,0,116.6-29.7,118.1-49.8c1.9-25.5-40.3-25.8-40.7-25.8h-60.6c-13.7,0.9-25.8,7.9-33.4,18.4h88.1c5.8,0,13.7,0.3,16,3.1
	c0.5,0.6,1,1.6,0.7,3.7c-2.1,11.7-47.5,28.9-60.8,28.9c0,0-0.4,0-0.7-0.1c0.1-0.5,0.5-1.5,1.9-3.7
	C-44.8,280.1-32.6,261.6-32.4,261.4"/>
<path d="M311.2,277.3c-0.1,1.7-1.7,3.4-2.9,4.5c-3.2,2.9-14.8,10.2-26.5,6.2c-2.4-0.8-3.7-2.2-3.8-4c0-0.2,0-0.5,0-0.7
	c0.2-2.6,2.3-5.8,5.1-7.7c2.8-1.9,6.5-3.1,10.9-3.7c2.8,1.6,6.9,2.5,11.7,2.6h4.4c0.8,0.8,1.2,1.7,1.2,2.6
	C311.2,277.2,311.2,277.2,311.2,277.3 M415.5,288.3c7.1-4.8,16.9-12.3,17.3-19.9c0.5-9.6-6.3-14.6-18-14.6c-6,0-17.8,3.6-27,6.8
	l4-5.7h-27l0,0.1c-4,3.3-8.1,4-18.6,4.2H326h-5.2c-3.3-1.5-7.1-2.8-11.3-3.7c-20-4.1-42.4,2.9-51,16c-2.6,4-4.1,7.9-4.4,11.6
	c-0.1,0.7,0,1.4,0.1,2.1c0,0-0.1,1.2,0.5,3.1h-17.9c-4.1,0-2.4-3.6-1.5-5.1l34.3-48.8h-27l-37.9,53.9H195c-5.2,0-1.1-5.7-1.1-5.7h0
	l6.8-9.7h0c0.5-0.6,0.9-1.3,1.3-2c1.6-2.7,3-5.8,2.8-9c-0.1-1.5-0.4-3-1.2-4.2c-0.8-1.1-1.9-1.8-3.1-2.2c-3.7-1.4-7.7-1.1-11.5-0.5
	c-5.2,0.9-10.3,2.4-15.4,4c-3.3,1-6.5,2.1-9.8,3.3l5.2-7.4h-27l-23.5,33.4h-10.7c-4.3,0-2.3-3.8-1.4-5.2l19.8-28.2h-27l-15.3,21.8
	l-1.8,2.5c-2,2.3-6,5.6-13.5,8c-12,3.8-6.6-4.2-6.2-4.7l19.5-27.7h-27l-19.3,27.4l0,0l-1.4,2c-1.6,2.4-3,5.1-3.1,8
	c-0.1,2,0.4,3.9,1.5,5.6c3.6,5.7,11,7.2,17.3,7.5c4.8,0.2,9.7-0.1,14.5-0.9c5.8-0.9,11.5-2.4,17.1-4.2c0.8,1.6,3,3.3,6.4,3.3h4.1h0
	v0h36.2h6.5l13.5-19.2l0,0c0,0,0,0,0.1-0.1l1.6-2.3c2-2.3,6-5.7,13.6-8.2c10.6-3.4,7.6,2.5,6.5,4.2l-9.6,13.6
	c-0.1,0.1-7.1,11.8,8.1,11.9h28h0h27h49.2c1,0.3,2.1,0.6,3.3,0.8c21.2,4.4,46.8-5.2,54.3-16.7c1.4-2.1,2.3-4.3,2.9-6.6
	c0,0,0,0,0-0.1c0.2-1,0.4-2.1,0.5-3.1c0.1-1.2,0-2.4-0.1-3.6h0h12.2c1.2,0,3.3-0.2,5.8-0.8l-35.6,50.8h27l25.8-36.8l1.3-1.8
	c0,0,7.4-7.3,17.6-11.6v0c0,0,5-2.1,9.7-3.2c0.2-0.1,0.4-0.1,0.6-0.2c0,0,0,0,0,0c0.3-0.1,0.6-0.1,0.9-0.2c0,0,0,0,0.1,0v0
	c0.6-0.1,1.2-0.2,1.7-0.2c3.9,0,6.1,1.6,6,4.8c-0.1,1.9-1.9,3.8-3.9,5.2c0,0-1.9,1.6-4.7,3.2c0,0-1.4,0.8-2.2,1.1
	c-1.3,0.6-2.7,1.2-4.2,1.6c-0.1,0-0.3,0.1-0.4,0.1c-0.1,0-0.2,0.1-0.2,0.1c0,0-0.1,0-0.1,0c-4.3,1.2-9.7,1.9-16.5,1.6l-10.9,15.6
	h77.4c3.2-4.7,5.5-9.9,6.7-15.6C432.1,288.3,419.3,288.3,415.5,288.3"/>
<path d="M466.4,339.7c-0.2-0.1-0.6-0.1-1-0.1h-0.4v2h0.7c0.4,0,0.7-0.1,1-0.2c0.2-0.2,0.4-0.4,0.4-0.8S466.7,339.9,466.4,339.7
	 M463.1,345.2v-6.8c0.4,0,1.1,0,1.9,0c0.8,0,1.3,0,1.4,0c0.5,0,1,0.2,1.3,0.3c0.6,0.3,0.9,0.9,0.9,1.6c0,0.6-0.2,1-0.5,1.2
	c-0.3,0.3-0.7,0.4-1.2,0.5c0.4,0.1,0.8,0.2,1,0.4c0.4,0.3,0.6,0.8,0.6,1.5v0.6c0,0.1,0,0.1,0,0.2c0,0.1,0,0.1,0,0.2l0.1,0.2H467
	c-0.1-0.2-0.1-0.5-0.1-0.9c0-0.4-0.1-0.7-0.1-0.9c-0.1-0.2-0.3-0.4-0.5-0.5c-0.1,0-0.3-0.1-0.6-0.1l-0.4,0h-0.4v2.4H463.1z
	 M462.2,338.2c-1,1-1.5,2.2-1.5,3.6c0,1.4,0.5,2.6,1.5,3.6c1,1,2.2,1.5,3.6,1.5c1.4,0,2.6-0.5,3.6-1.5c1-1,1.5-2.2,1.5-3.6
	c0-1.4-0.5-2.6-1.5-3.6c-1-1-2.2-1.6-3.6-1.6C464.4,336.7,463.2,337.2,462.2,338.2 M470.1,346.2c-1.2,1.2-2.6,1.7-4.3,1.7
	c-1.7,0-3.2-0.6-4.4-1.8c-1.2-1.2-1.8-2.6-1.8-4.4c0-1.8,0.6-3.3,1.9-4.5c1.2-1.1,2.6-1.7,4.2-1.7c1.7,0,3.2,0.6,4.3,1.8
	c1.2,1.2,1.8,2.7,1.8,4.3C472,343.5,471.4,345,470.1,346.2"/>
</svg>
