<svg width="249" height="56" viewBox="0 0 249 56" fill="none" xmlns="http://www.w3.org/2000/svg">
<path fill-rule="evenodd" clip-rule="evenodd" d="M19.2481 2.45511C19.2481 1.09919 20.3473 0 21.7032 0C23.0591 0 24.1583 1.09919 24.1583 2.45511V53.1286C24.1583 54.4845 23.0591 55.5837 21.7032 55.5837C20.3473 55.5837 19.2481 54.4845 19.2481 53.1286V2.45511ZM27.8901 10.6061C27.8901 9.30439 28.9453 8.24917 30.247 8.24917C31.5486 8.24917 32.6039 9.30439 32.6039 10.6061V45.3704C32.6039 46.6721 31.5486 47.7273 30.247 47.7273C28.9453 47.7273 27.8901 46.6721 27.8901 45.3704V41.6386C27.8246 41.0821 27.3401 39.9692 25.926 39.9692C24.5118 39.9692 24.1583 41.0821 24.1583 41.6386V14.3378C24.2892 14.8943 24.8261 16.0073 25.926 16.0073C27.0259 16.0073 27.6936 14.8943 27.8901 14.3378V10.6061ZM27.8901 21.0056C27.8846 20.1425 27.1832 19.4444 26.3188 19.4444C25.451 19.4444 24.7475 20.1479 24.7475 21.0157V34.1751C24.7475 35.0429 25.451 35.7464 26.3188 35.7464C27.1832 35.7464 27.8846 35.0483 27.8901 34.1852V21.0056ZM12.2756 16.4983C10.9196 16.4983 9.82046 17.5975 9.82046 18.9534V37.023C9.82046 38.379 10.9196 39.4781 12.2756 39.4781C13.6315 39.4781 14.7307 38.379 14.7307 37.023V18.9534C14.7307 17.5975 13.6315 16.4983 12.2756 16.4983ZM0 25.4349C0 24.079 1.09919 22.9798 2.45511 22.9798C3.81103 22.9798 4.91022 24.079 4.91022 25.4349V30.5416C4.91022 31.8975 3.81103 32.9967 2.45511 32.9967C1.09919 32.9967 0 31.8975 0 30.5416V25.4349ZM39.9691 20.6229C38.6132 20.6229 37.514 21.7221 37.514 23.078V32.8984C37.514 34.2544 38.6132 35.3536 39.9691 35.3536C41.3251 35.3536 42.4243 34.2544 42.4243 32.8984V23.078C42.4243 21.7221 41.3251 20.6229 39.9691 20.6229ZM45.9597 27.9882C45.9597 26.7408 46.9709 25.7295 48.2184 25.7295C49.4658 25.7295 50.4771 26.7408 50.4771 27.9882C50.4771 29.2357 49.4658 30.2469 48.2184 30.2469C46.9709 30.2469 45.9597 29.2357 45.9597 27.9882Z" fill="#870DE7"/>
<path d="M75.7891 26.056V26.008C75.7891 22.576 73.3651 20.2 69.3571 20.2H62.4931V37H66.1891V31.96H68.9971C72.7651 31.96 75.7891 29.944 75.7891 26.056ZM72.0451 26.128C72.0451 27.568 70.9651 28.672 69.1171 28.672H66.1891V23.536H69.0451C70.8931 23.536 72.0451 24.424 72.0451 26.08V26.128ZM90.5963 37V33.64H82.2203V20.2H78.5243V37H90.5963ZM109.752 37L102.552 20.08H99.1437L91.9437 37H95.7117L97.2477 33.232H104.352L105.888 37H109.752ZM103.032 29.968H98.5677L100.8 24.52L103.032 29.968ZM127.273 37V20.2H123.625V30.544L115.753 20.2H112.345V37H115.993V26.32L124.129 37H127.273ZM144.098 37V33.712H134.978V30.184H142.898V26.896H134.978V23.488H143.978V20.2H131.306V37H144.098ZM160.104 23.608V20.2H146.184V23.608H151.296V37H154.992V23.608H160.104ZM186.941 37V20.2H182.957L178.541 27.304L174.125 20.2H170.141V37H173.765V26.104L178.445 33.208H178.541L183.269 26.032V37H186.941ZM205.353 29.68V20.2H201.657V29.824C201.657 32.488 200.289 33.856 198.033 33.856C195.777 33.856 194.409 32.44 194.409 29.704V20.2H190.713V29.8C190.713 34.744 193.473 37.264 197.985 37.264C202.497 37.264 205.353 34.768 205.353 29.68ZM221.262 32.032V31.984C221.262 29.056 219.342 27.832 215.934 26.944C213.03 26.2 212.31 25.84 212.31 24.736V24.688C212.31 23.872 213.054 23.224 214.47 23.224C215.886 23.224 217.35 23.848 218.838 24.88L220.758 22.096C219.054 20.728 216.966 19.96 214.518 19.96C211.086 19.96 208.638 21.976 208.638 25.024V25.072C208.638 28.408 210.822 29.344 214.206 30.208C217.014 30.928 217.59 31.408 217.59 32.344V32.392C217.59 33.376 216.678 33.976 215.166 33.976C213.246 33.976 211.662 33.184 210.15 31.936L207.966 34.552C209.982 36.352 212.55 37.24 215.094 37.24C218.718 37.24 221.262 35.368 221.262 32.032ZM228.334 37V20.2H224.638V37H228.334ZM247.292 34.288L244.94 31.912C243.62 33.112 242.444 33.88 240.524 33.88C237.644 33.88 235.652 31.48 235.652 28.6V28.552C235.652 25.672 237.692 23.32 240.524 23.32C242.204 23.32 243.524 24.04 244.82 25.216L247.172 22.504C245.612 20.968 243.716 19.912 240.548 19.912C235.388 19.912 231.788 23.824 231.788 28.6V28.648C231.788 33.472 235.46 37.288 240.404 37.288C243.644 37.288 245.564 36.136 247.292 34.288Z" fill="black"/>
</svg>
